:FULLY-SPECIFIED
:FORCE-ALL-JOINTS-BE-3DOF
:DEGREES
611
root 5.65784 16.7722 -3.77642 1.81357 49.1279 -6.71782
lfemur -15.0858 22.5344 -22.7467
ltibia 34.8917 -0 0
lfoot -34.9124 25.8256 -0.108285
ltoes 26.6962 -0 0
rfemur -54.0877 -18.3214 25.5549
rtibia 66.3648 -0 0
rfoot 11.8718 25.8373 -0.17715
rtoes -11.6356 0 0
lowerback 2.87333 -3.58068 -4.01441
upperback -0.460156 -4.96262 1.23868
thorax -1.64698 -2.45031 3.7295
lowerneck -8.93513 -8.56079 0.0303072
upperneck 14.4728 -12.0728 2.77277
head 6.02367 -5.63613 -0.0565739
lclavicle 8.55218e-14 3.83887e-15 -3.57373e-30
lhumerus -24.6352 -40.758 94.4569
lradius 58.7124 -0 0
lwrist 20.3664 0 0
lhand -12.4948 -1.31222 0.0222197
lfingers 7.12502 -0 0
lthumb 13.579 28.2028 0.0176538
rclavicle 8.55218e-14 3.83887e-15 -3.57373e-30
rhumerus 23.0266 3.81404 -70.3084
rradius 113.654 -0 0
rwrist -56.4355 0 0
rhand -28.4489 -25.2517 0.0244701
rfingers 7.12502 -0 0
rthumb -1.81941 -55.2207 0.0236416
612
root 5.6534 16.7753 -3.79275 1.97686 47.8958 -6.52042
lfemur -15.3532 23.2434 -22.9576
ltibia 35.3055 -0 0
lfoot -35.0483 26.1213 -0.0895012
ltoes 27.0222 -0 0
rfemur -54.0059 -18.3634 25.5141
rtibia 67.1888 -0 0
rfoot 11.7062 26.5114 -0.153655
rtoes -11.2403 0 0
lowerback 2.86335 -3.61977 -4.01149
upperback -0.47719 -5.00421 1.2399
thorax -1.65262 -2.46838 3.72754
lowerneck -9.02411 -8.4715 0.0992226
upperneck 14.6607 -11.9639 2.74457
head 6.09043 -5.57575 -0.0805723
lclavicle 8.9552e-14 5.57503e-15 -3.17377e-30
lhumerus -24.1398 -41.6335 94.6647
lradius 58.91 -0 0
lwrist 20.3449 0 0
lhand -12.2473 -1.23693 0.0177192
lfingers 7.12502 -0 0
lthumb 13.8177 28.2662 0.0140272
rclavicle 8.9552e-14 5.57503e-15 -3.17377e-30
rhumerus 22.5176 3.40445 -70.4054
rradius 113.134 -0 0
rwrist -56.8836 0 0
rhand -28.6311 -25.4441 0.0211654
rfingers 7.12502 -0 0
rthumb -1.99544 -55.4118 0.0204409
613
root 5.65386 16.7783 -3.80993 2.12846 46.7279 -6.32708
lfemur -15.6501 23.9332 -23.1804
ltibia 35.7824 -0 0
lfoot -35.1883 26.3929 -0.0692243
ltoes 27.3137 -0 0
rfemur -53.9085 -18.3913 25.4344
rtibia 68.0161 -0 0
rfoot 11.5219 27.1769 -0.124587
rtoes -10.873 0 0
lowerback 2.86434 -3.65342 -4.00308
upperback -0.487299 -5.03714 1.24781
thorax -1.65766 -2.482 3.72907
lowerneck -9.10993 -8.38985 0.162053
upperneck 14.8514 -11.8647 2.7206
head 6.15885 -5.51998 -0.103278
lclavicle 9.36706e-14 7.40906e-15 -2.63176e-30
lhumerus -23.6605 -42.5093 94.8951
lradius 59.1136 -0 0
lwrist 20.3271 0 0
lhand -12.0058 -1.16466 0.0131983
lfingers 7.12502 -0 0
lthumb 14.0507 28.3268 0.0104067
rclavicle 9.36706e-14 7.40906e-15 -2.63176e-30
rhumerus 21.9862 2.99482 -70.5182
rradius 112.632 -0 0
rwrist -57.3357 0 0
rhand -28.8207 -25.641 0.0171275
rfingers 7.12502 -0 0
rthumb -2.17856 -55.6073 0.0165352
614
root 5.65945 16.7812 -3.828 2.26948 45.6278 -6.13638
lfemur -15.9774 24.6022 -23.4155
ltibia 36.3245 -0 0
lfoot -35.3323 26.6393 -0.0475048
ltoes 27.5691 -0 0
rfemur -53.7951 -18.4044 25.3143
rtibia 68.8459 -0 0
rfoot 11.3184 27.8329 -0.0895494
rtoes -10.5352 0 0
lowerback 2.87672 -3.68138 -3.98899
upperback -0.490207 -5.06104 1.26266
thorax -1.66206 -2.49097 3.73423
lowerneck -9.19242 -8.31624 0.218533
upperneck 15.0447 -11.7755 2.70099
head 6.22894 -5.46905 -0.124626
lclavicle 9.78769e-14 9.34286e-15 -1.93269e-30
lhumerus -23.1995 -43.3844 95.1501
lradius 59.3231 -0 0
lwrist 20.3131 0 0
lhand -11.7709 -1.09562 0.0087049
lfingers 7.12502 -0 0
lthumb 14.2773 28.3845 0.00683349
rclavicle 9.78769e-14 9.34286e-15 -1.93269e-30
rhumerus 21.4323 2.58532 -70.6473
rradius 112.148 -0 0
rwrist -57.7916 0 0
rhand -29.0178 -25.8424 0.012296
rfingers 7.12502 -0 0
rthumb -2.36884 -55.8072 0.0118666
615
root 5.6704 16.7842 -3.84696 2.40087 44.5993 -5.94707
lfemur -16.3363 25.2488 -23.6636
ltibia 36.9337 -0 0
lfoot -35.4805 26.8592 -0.0244053
ltoes 27.7868 -0 0
rfemur -53.6651 -18.402 25.1525
rtibia 69.6774 -0 0
rfoot 11.0952 28.4783 -0.0481485
rtoes -10.2282 0 0
lowerback 2.90092 -3.7034 -3.969
upperback -0.485635 -5.07554 1.28469
thorax -1.6658 -2.4951 3.74315
lowerneck -9.27139 -8.25107 0.268393
upperneck 15.2406 -11.6971 2.68585
head 6.30069 -5.4232 -0.144553
lclavicle 1.0217e-13 1.13783e-14 -1.0609e-30
lhumerus -22.7593 -44.2581 95.4319
lradius 59.5385 -0 0
lwrist 20.3032 0 0
lhand -11.5429 -1.02997 0.00428848
lfingers 7.12502 -0 0
lthumb 14.4972 28.439 0.00335003
rclavicle 1.0217e-13 1.13783e-14 -1.0609e-30
rhumerus 20.8559 2.17606 -70.7931
rradius 111.684 -0 0
rwrist -58.2508 0 0
rhand -29.2223 -26.0482 0.0066084
rfingers 7.12502 -0 0
rthumb -2.56636 -56.0114 0.00637549
616
root 5.68696 16.7871 -3.86685 2.52351 43.6461 -5.75799
lfemur -16.7275 25.8711 -23.9249
ltibia 37.6119 0 0
lfoot -35.6329 27.0513 0
ltoes 27.9651 0 0
rfemur -53.5182 -18.3832 24.9477
rtibia 70.51 0 0
rfoot 10.8519 29.112 0
rtoes -9.95358 0 0
lowerback 2.93735 -3.71926 -3.94293
upperback -0.4733 -5.08028 1.31416
thorax -1.66885 -2.4942 3.75597
lowerneck -9.34667 -8.19475 0.311368
upperneck 15.439 -11.6298 2.67532
head 6.3741 -5.38268 -0.162997
lclavicle 1.06549e-13 1.35174e-14 0
lhumerus -22.3425 -45.1294 95.7427
lradius 59.76 0 0
lwrist 20.2975 0 0
lhand -11.3224 -0.967928 0
lfingers 7.12502 0 0
lthumb 14.7099 28.4902 0
rclavicle 1.06549e-13 1.35174e-14 0
rhumerus 20.2566 1.76714 -70.9559
rradius 111.242 0 0
rwrist -58.7132 0 0
rhand -29.4344 -26.2584 0
rfingers 7.12502 0 0
rthumb -2.77121 -776.22 0
617
root 5.66807 16.7838 -3.84173 2.87582 42.3633 -5.49449
lfemur -16.7005 26.2002 -24.0808
ltibia 37.4891 -0 0
lfoot -35.7095 27.1296 0.0094252
ltoes 28.0956 -0 0
rfemur -53.653 -18.6384 25.2523
rtibia 70.8149 -0 0
rfoot 10.5973 28.9198 0.0917429
rtoes -9.46076 0 0
lowerback 2.84861 -3.76937 -3.99802
upperback -0.522846 -5.14879 1.26013
thorax -1.66407 -2.52788 3.7291
lowerneck -9.40118 -8.10618 0.34949
upperneck 15.3283 -11.518 2.70019
head 6.34688 -5.32624 -0.153259
lclavicle 1.07407e-13 1.33207e-14 1.25738e-31
lhumerus -22.1127 -45.8501 95.8817
lradius 60.0039 -0 0
lwrist 20.3408 0 0
lhand -11.1049 -0.865076 0.000130431
lfingers 7.12502 -0 0
lthumb 14.9195 28.5788 6.92622e-05
rclavicle 1.07407e-13 1.33207e-14 1.25738e-31
rhumerus 19.2883 1.46767 -71.0087
rradius 110.272 -0 0
rwrist -58.3407 0 0
rhand -29.4755 -26.636 -0.00198551
rfingers 7.12502 -0 0
rthumb -2.81095 -56.5974 -0.00191137
618
root 5.65024 16.7799 -3.8075 3.23852 41.034 -5.22779
lfemur -16.6712 26.526 -24.2451
ltibia 37.3644 -0 0
lfoot -35.7897 27.1949 0.0192615
ltoes 28.2128 -0 0
rfemur -53.7988 -18.9089 25.5721
rtibia 71.1182 -0 0
rfoot 10.3185 28.6818 0.19079
rtoes -8.94892 0 0
lowerback 2.75651 -3.82055 -4.05598
upperback -0.573499 -5.21866 1.20382
thorax -1.65841 -2.56222 3.70122
lowerneck -9.45612 -8.01589 0.386179
upperneck 15.2021 -11.4038 2.72946
head 6.31545 -5.26873 -0.141348
lclavicle 1.08227e-13 1.30802e-14 2.36512e-31
lhumerus -21.8884 -46.6031 96.0367
lradius 60.2648 -0 0
lwrist 20.3901 0 0
lhand -10.8792 -0.756906 0.000205833
lfingers 7.12502 -0 0
lthumb 15.137 28.6719 9.13506e-05
rclavicle 1.08227e-13 1.30802e-14 2.36512e-31
rhumerus 18.2434 1.156 -71.0654
rradius 109.241 -0 0
rwrist -57.92 0 0
rhand -29.5165 -27.0422 -0.00426825
rfingers 7.12502 -0 0
rthumb -2.85048 -57.0034 -0.00410968
